PathFileType	4	(x/y/z)	S02_BK_Cal_T01
DataRate	CameraRate	NumFrames	NumMarkers	Units	OrigDataRate	OrigDataStartFrame	OrigNumFrames
240	240	8	51	mm	240	1	2400
Frame#	Time	Sternum			R.Acromium			L.Acromium			Top.Head			R.ASIS			L.ASIS			R.PSIS			L.PSIS			R.Great.Tro			L.Great.Tro			R.Iliac.Crest			L.Iliac.Crest			V.Sacral			R.Thigh.Upper.Post			R.Thigh.Lower.Ant			R.Thigh.Lower.Post			R.Thigh.Upper.Ant			R.Knee.Lat			R.Knee.Med			R.Shank.Upper.Post			R.Shank.Lower.Ant			R.Shank.Lower.Post			R.Shank.Upper.Ant			R.Ankle.Lat			R.Ankle.Med			R.Heel.Upper			R.Heel.Med			R.Heel.Lat			R.Toe.Lat			R.Toe.Med			R.Toe.Tip			L.Thigh.Upper.Post			L.Thigh.Lower.Ant			L.Thigh.Lower.Post			L.Thigh.Upper.Ant			L.Knee.Lat			L.Knee.Med			L.Shank.Upper.Post			L.Shank.Lower.Ant			L.Shank.Lower.Post			L.Shank.Upper.Ant			L.Ankle.Lat			L.Ankle.Med			L.Heel.Upper			L.Heel.Med			L.Heel.Lat			L.Toe.Lat			L.Toe.Med			L.Toe.Tip			Cervical.Spine			Back			
		X1	Y1	Z1	X2	Y2	Z2	X3	Y3	Z3	X4	Y4	Z4	X5	Y5	Z5	X6	Y6	Z6	X7	Y7	Z7	X8	Y8	Z8	X9	Y9	Z9	X10	Y10	Z10	X11	Y11	Z11	X12	Y12	Z12	X13	Y13	Z13	X14	Y14	Z14	X15	Y15	Z15	X16	Y16	Z16	X17	Y17	Z17	X18	Y18	Z18	X19	Y19	Z19	X20	Y20	Z20	X21	Y21	Z21	X22	Y22	Z22	X23	Y23	Z23	X24	Y24	Z24	X25	Y25	Z25	X26	Y26	Z26	X27	Y27	Z27	X28	Y28	Z28	X29	Y29	Z29	X30	Y30	Z30	X31	Y31	Z31	X32	Y32	Z32	X33	Y33	Z33	X34	Y34	Z34	X35	Y35	Z35	X36	Y36	Z36	X37	Y37	Z37	X38	Y38	Z38	X39	Y39	Z39	X40	Y40	Z40	X41	Y41	Z41	X42	Y42	Z42	X43	Y43	Z43	X44	Y44	Z44	X45	Y45	Z45	X46	Y46	Z46	X47	Y47	Z47	X48	Y48	Z48	X49	Y49	Z49	X50	Y50	Z50	X51	Y51	Z51	

1	0	614.05	1067.8	319.58	510.32	1305.9	466.23	498.6	1305.1	170.42	549.91	1596	316.58	575.63	882.98	423.32	569.77	875.99	208.59	353.55	913.22	373.55	346.82	914.95	298.44	508.06	778.63	518.94	446.63	790.92	126.03	476.84	934.37	482.02	447.67	930.51	151.18	327.96	864.15	331.24	576.53	587.92	513.19	653.4	527.39	482.99	587.74	498.94	497.55	638.48	614.78	495.06	624.1	428.69	486.76	621.27	406.74	347.25	491.87	256.83	478.5	536.23	157.58	469.72	474.93	185.26	474.22	555.55	222.67	482.16	459.03	90.194	466.91	474.09	96.196	382.95	399.49	72.289	407.21	416.44	40.153	381.73	397.87	41.665	443.13	552.52	42.011	507.82	599.83	35.175	405.44	638.85	64.413	467.6	506.43	569.67	124.98	601.54	519.11	113.2	537.11	482.34	141.21	559.65	604.77	104.91	611.23	436.9	115.89	627.68	422.78	251.6	494.27	292.73	114.88	540.71	190.65	114.59	474.95	220.9	125.07	553.73	265.7	106.13	467.32	102.11	123.77	485.85	92.977	205.06	405.37	66.273	163.5	420.91	40.519	193.41	407.98	39.749	133.36	567.66	36.98	79.326	605.03	46.923	183.82	657.19	63.544	129.82	429.42	1366.1	320.84	355.72	1117.3	331.89
2	0.0041667	613.95	1067.7	319.44	510.33	1305.9	466.21	498.6	1305.1	170.41	549.91	1596	316.59	575.62	882.93	423.23	569.76	875.99	208.58	353.54	913.21	373.5	346.81	914.95	298.4	508.03	778.65	518.93	446.62	790.92	126	476.82	934.38	481.98	447.7	930.54	151.19	327.96	864.18	331.22	576.51	587.94	513.14	653.37	527.41	483	587.71	498.96	497.54	638.43	614.85	495.04	624.08	428.71	486.75	621.24	406.75	347.26	491.85	256.84	478.52	536.17	157.43	469.6	474.94	185.29	474.22	555.55	222.71	482.24	459.03	90.171	466.92	473.99	96.246	382.91	399.45	72.309	407.18	416.42	40.156	381.72	397.87	41.672	443.14	552.53	42.009	507.81	599.83	35.173	405.45	638.86	64.426	467.6	506.43	569.68	124.95	601.54	519.1	113.2	537.12	482.37	141.17	559.64	604.77	104.9	611.22	436.9	115.88	627.68	422.79	251.57	494.31	292.75	114.88	540.63	190.62	114.55	474.97	220.94	125.03	553.66	265.67	106.1	467.05	102.23	123.68	485.84	92.971	205.07	405.44	66.382	163.38	420.92	40.532	193.42	407.98	39.756	133.38	567.67	36.972	79.332	604.98	46.828	183.89	657.19	63.539	129.82	429.43	1366.1	320.81	355.72	1117.3	331.89
3	0.0083333	613.84	1067.6	319.31	510.35	1305.9	466.19	498.59	1305.1	170.39	549.92	1596	316.6	575.61	882.88	423.15	569.76	875.99	208.56	353.53	913.2	373.44	346.79	914.96	298.37	508.01	778.66	518.92	446.6	790.92	125.97	476.8	934.39	481.94	447.74	930.57	151.2	327.96	864.21	331.19	576.48	587.96	513.1	653.34	527.43	483	587.68	498.97	497.52	638.39	614.92	495.01	624.07	428.73	486.74	621.22	406.76	347.27	491.83	256.84	478.55	536.12	157.29	469.48	474.94	185.31	474.22	555.54	222.75	482.31	459.04	90.148	466.93	473.88	96.295	382.88	399.41	72.329	407.15	416.41	40.16	381.72	397.86	41.679	443.15	552.54	42.008	507.8	599.83	35.171	405.45	638.86	64.438	467.6	506.43	569.69	124.92	601.53	519.1	113.21	537.13	482.39	141.14	559.63	604.76	104.89	611.2	436.9	115.88	627.68	422.79	251.55	494.33	292.78	114.89	540.56	190.59	114.5	475	220.98	125	553.6	265.64	106.07	466.79	102.35	123.6	485.83	92.966	205.07	405.52	66.489	163.27	420.92	40.544	193.42	407.98	39.763	133.39	567.68	36.964	79.337	604.93	46.734	183.95	657.19	63.533	129.82	429.44	1366.1	320.77	355.73	1117.3	331.88
4	0.0125	613.74	1067.6	319.18	510.36	1305.9	466.16	498.59	1305.1	170.38	549.92	1596	316.61	575.6	882.84	423.07	569.75	875.98	208.53	353.52	913.19	373.39	346.78	914.96	298.33	507.99	778.68	518.9	446.58	790.92	125.94	476.78	934.4	481.9	447.77	930.6	151.21	327.96	864.23	331.16	576.46	587.98	513.06	653.32	527.45	483	587.65	498.99	497.51	638.34	614.98	494.98	624.06	428.75	486.73	621.19	406.77	347.28	491.8	256.84	478.58	536.06	157.15	469.37	474.95	185.34	474.22	555.54	222.79	482.38	459.04	90.125	466.95	473.78	96.342	382.84	399.37	72.348	407.13	416.4	40.163	381.71	397.86	41.685	443.16	552.54	42.006	507.79	599.83	35.171	405.46	638.86	64.45	467.59	506.43	569.71	124.88	601.53	519.1	113.21	537.14	482.41	141.11	559.63	604.76	104.88	611.19	436.9	115.87	627.68	422.8	251.53	494.36	292.81	114.89	540.48	190.56	114.45	475.02	221.01	124.97	553.54	265.61	106.05	466.53	102.46	123.53	485.81	92.961	205.08	405.59	66.592	163.16	420.93	40.556	193.43	407.98	39.771	133.4	567.69	36.957	79.342	604.89	46.643	184.01	657.19	63.527	129.82	429.45	1366.1	320.73	355.73	1117.3	331.87
5	0.016667	613.65	1067.5	319.06	510.37	1305.9	466.14	498.59	1305.1	170.36	549.93	1596	316.61	575.58	882.8	422.99	569.74	875.98	208.51	353.51	913.18	373.33	346.77	914.97	298.29	507.96	778.69	518.88	446.56	790.93	125.91	476.77	934.41	481.85	447.81	930.63	151.21	327.96	864.26	331.13	576.43	588	513.01	653.29	527.46	483	587.62	499	497.5	638.3	615.04	494.95	624.04	428.77	486.73	621.17	406.77	347.29	491.78	256.84	478.6	536.02	157.02	469.26	474.96	185.36	474.22	555.53	222.83	482.45	459.04	90.105	466.96	473.68	96.387	382.81	399.33	72.367	407.1	416.39	40.166	381.7	397.86	41.691	443.17	552.55	42.004	507.78	599.83	35.17	405.47	638.86	64.462	467.59	506.44	569.72	124.84	601.53	519.1	113.21	537.14	482.43	141.07	559.62	604.75	104.87	611.17	436.91	115.86	627.68	422.8	251.51	494.38	292.83	114.89	540.41	190.54	114.41	475.04	221.05	124.94	553.48	265.59	106.02	466.29	102.57	123.45	485.8	92.956	205.08	405.65	66.69	163.06	420.94	40.567	193.44	407.98	39.778	133.42	567.69	36.951	79.346	604.84	46.557	184.06	657.19	63.521	129.82	429.46	1366.1	320.7	355.74	1117.3	331.86
6	0.020833	613.56	1067.5	318.95	510.38	1305.8	466.12	498.59	1305.1	170.35	549.94	1596	316.62	575.57	882.77	422.92	569.73	875.98	208.49	353.5	913.18	373.28	346.76	914.97	298.25	507.94	778.7	518.86	446.53	790.93	125.88	476.75	934.42	481.81	447.83	930.65	151.21	327.95	864.29	331.1	576.4	588.01	512.97	653.26	527.48	483	587.59	499.02	497.48	638.25	615.1	494.93	624.03	428.78	486.72	621.14	406.78	347.3	491.76	256.84	478.62	535.97	156.9	469.16	474.97	185.38	474.21	555.52	222.86	482.51	459.04	90.085	466.97	473.6	96.427	382.78	399.29	72.385	407.08	416.38	40.169	381.7	397.86	41.696	443.18	552.55	42.002	507.77	599.83	35.17	405.47	638.86	64.472	467.59	506.44	569.74	124.81	601.52	519.1	113.2	537.15	482.45	141.04	559.61	604.75	104.85	611.15	436.91	115.85	627.68	422.81	251.49	494.4	292.85	114.9	540.35	190.51	114.37	475.05	221.08	124.91	553.42	265.57	105.99	466.07	102.67	123.39	485.79	92.952	205.08	405.72	66.779	162.97	420.94	40.578	193.44	407.98	39.786	133.43	567.7	36.945	79.349	604.8	46.477	184.11	657.19	63.516	129.82	429.47	1366.1	320.67	355.74	1117.2	331.85
7	0.025	613.49	1067.4	318.85	510.4	1305.8	466.1	498.59	1305.1	170.33	549.95	1596	316.62	575.56	882.74	422.85	569.72	875.97	208.46	353.49	913.17	373.23	346.74	914.98	298.21	507.91	778.71	518.84	446.51	790.93	125.85	476.73	934.43	481.77	447.85	930.68	151.21	327.95	864.31	331.07	576.38	588.03	512.94	653.23	527.5	483	587.56	499.03	497.47	638.21	615.15	494.9	624.02	428.8	486.71	621.12	406.78	347.31	491.74	256.85	478.64	535.93	156.79	469.08	474.97	185.4	474.21	555.52	222.89	482.57	459.04	90.068	466.98	473.52	96.464	382.75	399.26	72.401	407.06	416.37	40.171	381.69	397.86	41.7	443.19	552.56	42	507.76	599.83	35.171	405.48	638.86	64.482	467.59	506.44	569.75	124.76	601.51	519.1	113.19	537.15	482.46	141.01	559.6	604.75	104.83	611.13	436.92	115.84	627.67	422.82	251.47	494.42	292.87	114.9	540.29	190.5	114.32	475.07	221.11	124.88	553.37	265.55	105.97	465.87	102.76	123.33	485.78	92.947	205.09	405.77	66.86	162.89	420.95	40.588	193.45	407.99	39.794	133.44	567.71	36.941	79.35	604.77	46.404	184.16	657.19	63.511	129.82	429.48	1366.1	320.64	355.75	1117.2	331.83
8	0.029167	613.42	1067.4	318.76	510.41	1305.8	466.08	498.59	1305.1	170.32	549.96	1596	316.62	575.54	882.71	422.79	569.7	875.97	208.43	353.47	913.17	373.18	346.73	914.99	298.17	507.88	778.72	518.82	446.48	790.94	125.82	476.71	934.43	481.72	447.87	930.7	151.2	327.94	864.34	331.03	576.35	588.04	512.9	653.2	527.51	482.99	587.53	499.04	497.46	638.17	615.2	494.88	624	428.82	486.71	621.09	406.79	347.32	491.72	256.85	478.66	535.89	156.69	469	474.97	185.41	474.21	555.51	222.92	482.62	459.04	90.052	466.98	473.45	96.497	382.72	399.23	72.416	407.04	416.36	40.173	381.69	397.86	41.704	443.2	552.56	41.998	507.75	599.83	35.173	405.48	638.86	64.491	467.59	506.44	569.77	124.72	601.5	519.1	113.18	537.15	482.48	140.98	559.59	604.75	104.82	611.12	436.93	115.82	627.67	422.83	251.45	494.43	292.89	114.9	540.24	190.48	114.29	475.08	221.14	124.86	553.32	265.53	105.95	465.69	102.84	123.28	485.76	92.943	205.09	405.82	66.932	162.82	420.96	40.597	193.45	407.99	39.802	133.45	567.71	36.937	79.351	604.74	46.34	184.2	657.19	63.506	129.82	429.49	1366.1	320.61	355.75	1117.2	331.82
